HIERARCHY
ROOT Hips
{
	OFFSET 0.000000 0.000000 0.000000 
	CHANNELS 6 Xposition Yposition Zposition Zrotation Yrotation Xrotation
	JOINT LeftUpLeg
	{
		OFFSET 1.363060 -1.794630 0.839290 
		CHANNELS 3 Zrotation Yrotation Xrotation
		JOINT LeftLeg
		{
			OFFSET 2.448110 -6.726130 0.000000 
			CHANNELS 3 Zrotation Yrotation Xrotation
			JOINT LeftFoot
			{
				OFFSET 2.562200 -7.039590 0.000000 
				CHANNELS 3 Zrotation Yrotation Xrotation
				JOINT LeftToeBase
				{
					OFFSET 0.157640 -0.433110 2.322550 
					CHANNELS 3 Zrotation Yrotation Xrotation
					End Site
					{
						OFFSET 0.000000 0.000000 0.000000 
					}
				}
			}
		}
	}
	JOINT RightUpLeg
	{
		OFFSET -1.305520 -1.794630 0.839290 
		CHANNELS 3 Zrotation Yrotation Xrotation
		JOINT RightLeg
		{
			OFFSET -2.542530 -6.985550 0.000000 
			CHANNELS 3 Zrotation Yrotation Xrotation
			JOINT RightFoot
			{
				OFFSET -2.568260 -7.056230 0.000000 
				CHANNELS 3 Zrotation Yrotation Xrotation
				JOINT RightToeBase
				{
					OFFSET -0.164730 -0.452590 2.363150 
					CHANNELS 3 Zrotation Yrotation Xrotation
					End Site
					{
						OFFSET 0.000000 0.000000 0.000000 
					}
				}
			}
		}
	}
	JOINT Spine
	{
		OFFSET 0.028270 2.035590 -0.193380 
		CHANNELS 3 Zrotation Yrotation Xrotation
		JOINT Spine1
		{
			OFFSET 0.056720 2.048850 -0.042750 
			CHANNELS 3 Zrotation Yrotation Xrotation
			JOINT Neck1
			{
				OFFSET -0.054170 1.746240 0.172020 
				CHANNELS 3 Zrotation Yrotation Xrotation
				JOINT Head
				{
					OFFSET 0.104070 1.761360 -0.123970 
					CHANNELS 3 Zrotation Yrotation Xrotation
					End Site
					{
						OFFSET 0.000000 0.000000 0.000000 
					}
				}
			}
			JOINT LeftArm
			{
				OFFSET 3.362410 1.200890 -0.311210 
				CHANNELS 3 Zrotation Yrotation Xrotation
				JOINT LeftForeArm
				{
					OFFSET 4.983000 -0.000000 -0.000000 
					CHANNELS 3 Zrotation Yrotation Xrotation
					JOINT LeftHand
					{
						OFFSET 3.483560 -0.000000 -0.000000 
						CHANNELS 3 Zrotation Yrotation Xrotation
						JOINT LeftHandIndex1
						{
							OFFSET 0.715260 -0.000000 -0.000000 
							CHANNELS 3 Zrotation Yrotation Xrotation
							End Site
							{
								OFFSET 0.000000 0.000000 0.000000 
							}
						}
					}
				}
			}
			JOINT RightArm
			{
				OFFSET -3.136600 1.374050 -0.404650 
				CHANNELS 3 Zrotation Yrotation Xrotation
				JOINT RightForeArm
				{
					OFFSET -5.241900 -0.000000 -0.000000 
					CHANNELS 3 Zrotation Yrotation Xrotation
					JOINT RightHand
					{
						OFFSET -3.444170 -0.000000 -0.000000 
						CHANNELS 3 Zrotation Yrotation Xrotation
						JOINT RightHandIndex1
						{
							OFFSET -0.622530 -0.000000 -0.000000 
							CHANNELS 3 Zrotation Yrotation Xrotation
							End Site
							{
								OFFSET 0.000000 0.000000 0.000000 
							}
						}
					}
				}
			}
		}
	}
}
MOTION
Frames: 18
Frame Time: 0.041667
0.718363 18.434784 9.641941 -11.272202 -3.424890 12.307751 -23.561664 -52.670479 27.580828 -4.179998 -2.912112 -3.517684 -11.696523 46.865218 -46.973918 1.433300 7.569600 21.414200 23.855234 27.798077 -0.738643 3.506181 -0.321769 2.351547 7.116637 -23.019517 0.043282 -0.001100 -0.210400 0.578000 21.719313 4.568522 4.104163 -9.017793 0.098607 -17.002973 11.952000 -9.790645 40.253722 1.829500 -2.437900 12.658600 -38.457279 -36.669470 60.803921 45.663946 -44.200781 -25.016804 -0.421966 -3.652539 -59.669034 -7.125000 0.000000 0.000000 46.667157 42.888432 81.749150 -59.282397 48.631278 -34.069715 0.115505 1.424224 8.147590 7.125000 0.000000 0.000000 
0.720361 18.432680 9.641520 -11.187135 -3.204617 12.216672 -23.329293 -52.261605 27.132816 -4.151973 -2.915251 -3.541179 -12.103563 46.884122 -45.945171 1.354100 7.366100 20.804700 23.837282 27.747564 -0.616813 3.511569 -0.322392 2.361822 7.195384 -23.217259 -0.120456 -0.000300 -0.105600 0.290100 21.682944 4.519191 3.767614 -8.981294 0.058989 -16.956230 11.810029 -9.857736 40.921854 1.778700 -2.455900 12.853100 -40.140325 -36.813887 60.971553 44.766273 -43.643293 -24.210280 -0.301137 -3.675502 -61.477916 -7.125000 0.000000 0.000000 45.942807 42.376886 80.831911 -60.535007 49.055539 -35.171964 0.102275 1.237870 12.725689 7.125000 0.000000 0.000000 
0.724253 18.431418 9.640679 -11.162267 -2.931383 12.153643 -23.156379 -52.002549 26.828172 -4.127254 -2.908113 -3.547077 -12.418420 46.889359 -45.095083 1.288800 7.193600 20.290100 23.877184 27.664729 -0.524040 3.515774 -0.329710 2.377832 7.275013 -23.434677 -0.249935 -0.000100 0.049800 -0.136800 21.746196 4.504857 3.310848 -9.032435 0.003645 -16.866328 11.864225 -9.973676 41.487667 1.784200 -2.476000 13.034800 -41.842064 -36.934134 61.432713 43.817001 -43.030045 -23.338816 -0.320951 -3.626040 -60.657302 -7.125000 0.000000 0.000000 45.309379 41.805499 79.850008 -61.672934 49.448508 -36.203108 0.060997 1.067736 17.021020 7.125000 0.000000 0.000000 
0.729511 18.429419 9.637839 -11.219602 -2.593148 12.024621 -22.997583 -51.798680 26.614038 -4.101436 -2.912558 -3.557059 -12.801502 46.973759 -44.192649 1.204800 6.963800 19.608100 23.959044 27.555451 -0.436283 3.519675 -0.341638 2.412302 7.353583 -23.641698 -0.430992 -0.000300 0.119300 -0.327900 22.258252 4.369750 3.286195 -9.153098 -0.096488 -16.841274 11.639373 -9.935651 41.862286 1.733600 -2.472200 13.178700 -43.430029 -37.073667 62.195723 43.087175 -42.498061 -22.632713 -0.455981 -3.524415 -58.385147 -7.125000 0.000000 0.000000 44.745171 41.399521 78.921573 -62.572567 49.737102 -37.023889 0.013533 0.947489 20.060721 7.125000 0.000000 0.000000 
0.735612 18.425949 9.634473 -11.294737 -2.270360 11.847217 -22.809402 -51.543479 26.347212 -4.074100 -2.918839 -3.551151 -13.260331 47.127575 -43.185514 1.091100 6.638400 18.648300 24.007219 27.402870 -0.384245 3.522176 -0.354902 2.458295 7.407966 -23.773755 -0.587726 -0.000500 0.144000 -0.395500 23.008148 4.112294 3.643236 -9.290389 -0.224068 -16.864025 11.419265 -9.824639 41.980714 1.698800 -2.445800 13.244400 -44.806126 -37.104188 62.996556 42.802946 -42.213302 -22.313238 -0.585454 -3.409676 -56.408755 -7.125000 0.000000 0.000000 44.290853 41.206414 78.142793 -63.184220 49.905392 -37.578246 -0.019330 0.877452 21.902875 7.125000 0.000000 0.000000 
0.740976 18.423635 9.630897 -11.338878 -2.070145 11.711609 -22.735392 -51.389175 26.213916 -4.063183 -2.917184 -3.518339 -13.379660 47.070956 -42.702777 1.048500 6.511500 18.276000 24.006088 27.234248 -0.391157 3.521165 -0.372482 2.508298 7.416223 -23.788422 -0.620609 -0.000300 0.106200 -0.291700 23.554476 3.924095 3.860626 -9.406779 -0.317455 -16.860049 11.515832 -9.814717 42.015143 1.750500 -2.429800 13.281500 -45.968340 -36.908337 63.746588 43.033114 -42.259823 -22.464625 -0.619245 -3.294664 -55.646442 -7.125000 0.000000 0.000000 44.020770 41.056611 77.483378 -63.437626 49.977220 -37.814712 -0.029895 0.830615 23.255386 7.125000 0.000000 0.000000 
0.744867 18.423004 9.627111 -11.384684 -1.969556 11.631455 -22.743402 -51.376760 26.261103 -4.063965 -2.913252 -3.500058 -13.298218 46.945240 -42.671264 1.069800 6.575400 18.463300 24.057310 27.142396 -0.380744 3.519232 -0.389571 2.553899 7.414407 -23.785280 -0.629784 -0.000100 0.062700 -0.172200 23.691943 3.877408 3.809775 -9.496116 -0.357060 -16.814772 11.757729 -9.908290 42.063871 1.811200 -2.434700 13.304800 -46.931238 -36.580969 64.588878 43.686630 -42.586831 -23.020624 -0.544956 -3.203875 -56.119601 -7.125000 0.000000 0.000000 43.925135 40.884710 76.835027 -63.157781 49.928613 -37.570318 -0.021869 0.803836 24.417814 7.125000 0.000000 0.000000 
0.748023 18.421952 9.616909 -11.229848 -2.060516 11.559849 -23.066249 -51.404627 26.476233 -4.070307 -2.903788 -3.472939 -13.263374 46.985923 -42.850365 1.081800 6.610800 18.567400 23.906843 27.189757 -0.389172 3.512031 -0.439648 2.671738 7.421796 -23.789141 -0.610490 -0.000300 0.109300 -0.300200 23.351976 3.928100 3.508256 -9.391881 -0.323054 -16.847590 11.980255 -10.024677 42.131455 1.845300 -2.449600 13.296100 -47.705068 -36.114744 65.515558 44.634945 -43.118977 -23.884439 -0.412085 -3.150170 -57.009856 -7.125000 0.000000 0.000000 44.072295 40.744223 76.323453 -62.267529 49.734219 -36.762437 0.002918 0.790065 25.796911 7.125000 0.000000 0.000000 
0.750126 18.420690 9.592402 -10.613568 -2.462854 11.474527 -23.773002 -51.243808 26.591372 -4.084927 -2.875239 -3.373367 -13.073600 46.893571 -43.165462 1.117300 6.714700 18.873000 23.236721 27.466937 -0.459601 3.496948 -0.537256 2.887221 7.451082 -23.805597 -0.536107 -0.000400 0.133100 -0.365600 22.228085 4.138114 2.776008 -8.908840 -0.150537 -17.076317 12.146707 -10.183675 42.407405 1.860100 -2.494900 13.321700 -48.408348 -35.509137 66.560077 45.786106 -43.800768 -24.990795 -0.247467 -3.115020 -57.898308 -7.125000 0.000000 0.000000 44.455874 40.538824 75.977012 -60.984255 49.469095 -35.619627 0.048481 0.794711 27.486083 7.125000 0.000000 0.000000 
0.753913 18.424687 9.610914 -11.270314 -2.164089 11.741216 -22.779362 -51.112833 26.099912 -4.068241 -2.890184 -3.487345 -13.215284 46.847588 -42.660859 1.098600 6.660400 18.713100 23.935813 27.208515 -0.529059 3.499803 -0.510424 2.808645 7.354466 -23.630978 -0.555549 -0.000700 0.166400 -0.457100 23.216271 4.283528 1.967079 -9.477192 -0.292547 -16.398728 12.225959 -10.369606 42.555995 1.861900 -2.568100 13.413700 -49.018965 -34.832155 67.530016 47.267011 -44.515952 -26.336680 -0.099083 -3.055006 -58.795882 -7.125000 0.000000 0.000000 44.977736 40.366101 75.354166 -59.617924 49.045825 -34.383098 0.107969 0.844728 27.841158 7.125000 0.000000 0.000000 
0.759277 18.425843 9.616278 -11.438923 -2.169439 11.859808 -22.583305 -51.045266 26.003701 -4.072625 -2.889529 -3.496327 -13.054985 46.658200 -42.735053 1.150000 6.809200 19.151200 24.080279 27.098811 -0.589612 3.497795 -0.506410 2.788224 7.280240 -23.458422 -0.468973 -0.000300 0.112600 -0.309200 23.486248 4.419897 1.428208 -9.650433 -0.310495 -16.064751 12.168277 -10.477321 42.688001 1.828400 -2.627700 13.463300 -49.616557 -34.136545 68.435276 48.802925 -45.250803 -27.778681 0.031855 -2.962564 -59.330039 -7.125000 0.000000 0.000000 45.513095 40.204505 74.850242 -58.102360 48.590109 -33.024866 0.161462 0.912157 27.384731 7.125000 0.000000 0.000000 
0.763484 18.424897 9.615015 -11.356820 -2.307352 11.875480 -22.712827 -50.899739 25.993982 -4.073084 -2.882101 -3.472919 -13.114007 46.705481 -42.640965 1.137100 6.772000 19.041700 23.971741 27.133325 -0.578893 3.495991 -0.506839 2.783517 7.252752 -23.382211 -0.392046 -0.000000 0.031000 -0.085200 23.379210 4.520571 1.095002 -9.607697 -0.272042 -15.935077 12.088478 -10.521913 42.718096 1.790100 -2.662900 13.457100 -50.164457 -33.478858 69.271416 50.183755 -45.900248 -29.119244 0.156012 -2.849617 -59.173520 -7.125000 0.000000 0.000000 46.121617 39.986667 74.345262 -56.677287 48.160181 -31.765783 0.197483 1.003929 26.596484 7.125000 0.000000 0.000000 
0.764746 18.422898 9.612702 -11.308591 -2.457904 11.898768 -22.741035 -50.751872 25.923067 -4.072142 -2.873331 -3.455547 -13.211824 46.797260 -42.530387 1.111000 6.696500 18.819200 23.906537 27.167309 -0.587096 3.493285 -0.506722 2.774557 7.219253 -23.301139 -0.276937 -0.000000 0.020200 -0.055500 23.268506 4.635645 0.766129 -9.573111 -0.228378 -15.802832 12.236148 -10.632631 42.711515 1.813400 -2.695600 13.457800 -50.674169 -32.851927 69.997351 51.319871 -46.423805 -30.259496 0.273168 -2.708940 -58.275765 -7.125000 0.000000 0.000000 46.733456 39.670229 73.936490 -55.573207 47.829079 -30.820733 0.222425 1.110701 25.572934 7.125000 0.000000 0.000000 
0.765482 18.421847 9.609231 -11.356482 -2.592405 11.911520 -22.795916 -50.757277 26.017464 -4.083110 -2.870535 -3.434164 -13.075460 46.734949 -42.815195 1.141900 6.785800 19.082300 23.919295 27.177464 -0.608474 3.489848 -0.507325 2.765897 7.167769 -23.178010 -0.164519 0.000000 0.014900 -0.041000 23.459693 4.716993 0.560208 -9.630214 -0.217145 -15.689235 12.518363 -10.768722 42.477172 1.877600 -2.733600 13.397300 -51.178644 -32.282181 70.447091 52.044016 -46.759837 -31.031169 0.386130 -2.522596 -56.905375 -7.125000 0.000000 0.000000 47.183839 39.333376 73.721087 -54.958547 47.655626 -30.326327 0.234690 1.218913 23.893307 7.125000 0.000000 0.000000 
0.765272 18.420164 9.598397 -11.179366 -2.851570 11.848575 -23.140091 -50.741494 26.206899 -4.099670 -2.868578 -3.386998 -12.870985 46.638085 -43.213640 1.198600 6.946500 19.556900 23.691790 27.290942 -0.621629 3.483019 -0.535222 2.827986 7.141925 -23.091417 -0.066475 0.000000 -0.024400 0.067100 23.348077 4.754337 0.541586 -9.493936 -0.163352 -15.790734 12.852662 -10.835530 42.216326 1.969300 -2.730600 13.319500 -51.684071 -31.836040 70.548084 52.241500 -46.900917 -31.354285 0.533734 -2.282949 -55.706261 -7.125000 0.000000 0.000000 47.471187 38.899415 73.580071 -54.932222 47.720200 -30.384604 0.217263 1.343293 20.869681 7.125000 0.000000 0.000000 
0.763904 18.415431 9.572944 -10.430745 -3.345752 11.698247 -24.012994 -50.633542 26.397321 -4.120121 -2.841452 -3.259502 -12.526457 46.423186 -43.727678 1.284300 7.181300 20.253800 22.876345 27.571765 -0.676264 3.470859 -0.603618 2.987267 7.176360 -23.108049 0.072495 -0.000100 -0.065400 0.179600 22.042209 4.815478 0.467282 -8.875974 0.035008 -16.215453 13.337531 -11.122708 42.225277 2.066800 -2.805900 13.328800 -52.167215 -31.498087 70.487553 52.152519 -46.979264 -31.483239 0.739201 -2.012283 -55.344531 -7.125000 0.000000 0.000000 47.649350 38.220862 73.550757 -55.365995 48.024853 -30.908405 0.169865 1.470773 16.300931 7.125000 0.000000 0.000000 
0.763694 18.416903 9.592297 -11.136749 -2.903368 11.947390 -23.024921 -50.699539 26.016168 -4.098046 -2.856505 -3.379218 -12.792736 46.526437 -43.200078 1.215200 6.992700 19.693800 23.641012 27.259762 -0.727361 3.480530 -0.545253 2.842000 7.122054 -23.045848 0.003954 0.000000 0.012000 -0.033100 23.113042 4.794921 0.245412 -9.428785 -0.149446 -15.665018 13.348712 -11.208817 41.973915 2.039100 -2.845400 13.305400 -52.527284 -31.253994 70.284153 52.120563 -46.971872 -31.552504 0.956230 -1.770886 -55.641311 -7.125000 0.000000 0.000000 47.668655 37.388747 73.573383 -56.276225 48.392092 -31.821894 0.134948 1.543718 11.406191 7.125000 0.000000 0.000000 
0.761380 18.417429 9.596715 -11.358225 -2.724920 12.002612 -22.742474 -50.774428 25.959444 -4.093214 -2.865492 -3.427058 -12.825975 46.530881 -43.125268 1.192600 6.929600 19.507100 23.897777 27.158622 -0.717726 3.485298 -0.516032 2.773889 7.113309 -23.047586 -0.032824 0.000000 0.043800 -0.120300 23.461371 4.729219 0.306457 -9.577919 -0.221632 -15.523055 13.411560 -11.276040 41.841741 2.040900 -2.869500 13.304300 -52.792447 -31.151653 70.153921 52.021312 -46.945786 -31.531049 1.123766 -1.625492 -55.778574 -7.125000 0.000000 0.000000 47.463392 36.421489 73.802470 -57.432805 48.864929 -32.938271 0.146245 1.521448 7.888912 7.125000 0.000000 0.000000 
